<svg width="auto" height="auto" viewBox="0 0 231 146" fill="none" xmlns="http://www.w3.org/2000/svg">
<path fill-rule="evenodd" clip-rule="evenodd" d="M124.2 53.65C126.83 57.03 124.14 63.18 123.2 65.25C115.04 83.9 82.83 94 54.58 107.25C20.05 123.5 -0.589988 145.04 -0.0199876 145.91C0.550012 146.78 27.78 122.67 70.05 109.67C83.59 105.5 123.3 103.88 151.99 86.15C163.5 79.03 177.29 69.64 189.4 52.65C201.21 36.08 210.52 13.08 223.71 13.51C226.71 13.6 229.55 14.87 229.99 13.99C230.99 12.08 220.25 0.389992 209.21 -0.0100083C192.21 -0.650008 183.44 24.32 167.21 28.99C143.58 36.59 132.47 8.39999 93.28 15.46C65.96 22.77 69.13 52.28 41.13 62.83C25.79 68.62 10.7 63.83 10.21 66.22C9.45001 69.9 38.21 86.44 62.88 77.81C79.17 72.11 85.14 58.4 108.52 52.7C118.92 50.14 122.66 51.68 124.2 53.65Z" fill="url(#paint0_linear)"/>
<defs>
<linearGradient id="paint0_linear" x1="115.012" y1="-0.0220947" x2="115.012" y2="145.933" gradientUnits="userSpaceOnUse">
<stop stop-color="#158FFF"/>
<stop offset="0.942708" stop-color="#00FFE0"/>
</linearGradient>
</defs>
</svg>
